<svg width="70" height="36" xmlns="http://www.w3.org/2000/svg">
    <defs>
        <linearGradient x1="-.091%" y1="49.603%" x2="99.991%" y2="49.603%" id="a">
            <stop stop-color="#0C6400" offset="0%"/>
            <stop stop-color="#0CC300" offset="100%"/>
        </linearGradient>
    </defs>
    <g fill-rule="nonzero" fill="none">
        <path fill="#FFF" d="m58.639 35.044.043-16.007H70v3.293h-7.218l.044 2.879H67.6v2.922h-4.775v3.053H70l-.044 3.86zM0 12.8l2.77-2.093c.501.676 1.024 1.178 1.57 1.527.545.349 1.177.523 1.94.523 1.09 0 1.636-.393 1.636-1.156 0-.327-.11-.589-.305-.763-.197-.174-.633-.414-1.287-.698l-1.636-.72C2.028 8.244.698 6.652.698 4.668c0-1.396.523-2.508 1.548-3.38C3.271.437 4.601 0 6.215 0c2.551 0 4.34 1.069 5.408 3.184L8.875 5.277c-.392-.589-.806-1.025-1.199-1.286-.393-.262-.872-.393-1.417-.393-.938 0-1.418.327-1.418 1.003 0 .284.11.524.305.698.197.175.546.37 1.069.589l1.81.763c1.396.589 2.42 1.265 3.075 2.006.654.742.96 1.658.96 2.77 0 1.504-.546 2.682-1.636 3.576-1.09.894-2.464 1.33-4.144 1.33-1.395 0-2.66-.305-3.772-.937C1.418 14.763.567 13.89 0 12.8zM14.414 16.05V.283h10.947v3.708h-6.825v2.18h4.885v3.446h-4.885v2.747h7.13v3.708H14.415zM28.196 16.05V.283h4.122v12.06h6.52v3.707zM40.975 16.05V.283h10.707v3.708h-6.585V7h5.342v3.707h-5.342v5.343zM0 31.62l2.77-2.094c.501.676 1.024 1.178 1.57 1.527.545.349 1.177.523 1.94.523 1.09 0 1.636-.392 1.636-1.155 0-.328-.11-.59-.305-.764-.197-.174-.633-.414-1.287-.697l-1.636-.72c-2.66-1.178-3.99-2.77-3.99-4.754 0-1.396.523-2.508 1.548-3.38 1.025-.85 2.355-1.287 3.969-1.287 2.551 0 4.34 1.069 5.408 3.184l-2.748 2.094c-.392-.59-.806-1.025-1.199-1.287s-.872-.393-1.417-.393c-.938 0-1.418.328-1.418 1.004 0 .283.11.523.305.697.197.175.546.371 1.069.59l1.81.762c1.396.59 2.42 1.265 3.075 2.007.654.741.96 1.657.96 2.77 0 1.504-.546 2.681-1.636 3.575-1.09.895-2.464 1.33-4.144 1.33-1.395 0-2.66-.305-3.772-.937C1.418 33.583.567 32.732 0 31.62zM14.414 34.87V19.102h10.947v3.707h-6.825v2.18h4.885v3.446h-4.885v2.748h7.13v3.707H14.415zM42.153 34.87h-4.58l-3.554-4.907h-1.701v4.906h-4.122V19.103h6.193c1.767 0 3.228.501 4.384 1.483 1.155 1.003 1.722 2.311 1.722 3.925 0 1.984-.828 3.467-2.486 4.492l4.144 5.866zm-9.835-12.19v3.706h2.093c.567 0 1.025-.174 1.374-.523.349-.349.523-.785.523-1.352 0-.567-.174-1.003-.523-1.33-.349-.327-.807-.502-1.374-.502h-2.093z"/>
        <path fill="#0CC300" d="M52.729 25.012h16.006v3.293H52.729z"/>
        <path fill="url(#a)" d="M52.729 25.012h5.91v3.293h-5.91z"/>
        <path fill="#0CC300" d="M58.639 35.022V19.037h4.187V35z"/>
        <path fill="#FFF" d="M52.402 19.103h4.667l-7.175 16.05h-1.308l-7.175-16.05h4.667l3.184 7.741z"/>
    </g>
</svg>
